<?xml version="1.0" encoding="utf-8"?>
<!-- Generator: Adobe Illustrator 23.1.0, SVG Export Plug-In . SVG Version: 6.00 Build 0)  -->
<svg version="1.1" id="Layer_1" xmlns="http://www.w3.org/2000/svg" xmlns:xlink="http://www.w3.org/1999/xlink" x="0px" y="0px"
	 viewBox="0 0 500 499" style="enable-background:new 0 0 500 499;" xml:space="preserve">
<style type="text/css">
	.st0{display:none;}
	.st1{display:inline;opacity:0.54;fill:#ED1E79;enable-background:new    ;}
	.st2{fill:#2E3192;}
	.st3{fill:#29ABE2;}
	.st4{fill:#FFFFFF;stroke:#000000;stroke-width:5.4288;stroke-miterlimit:10;}
	.st5{fill:none;stroke:#000000;stroke-width:3.1008;stroke-miterlimit:10;}
	.st6{fill:none;stroke:#000000;stroke-width:3.1411;stroke-miterlimit:10;}
	.st7{fill:none;stroke:#000000;stroke-width:5.7198;stroke-miterlimit:10;}
	.st8{fill:none;stroke:#000000;stroke-width:5.4288;stroke-miterlimit:10;}
	.st9{display:inline;}
	.st10{fill:#1A1A1A;}
</style>
<g id="Layer_3" class="st0">
	<rect x="-9" y="-9" class="st1" width="527" height="521"/>
</g>
<g>
	<path class="st2" d="M430.3,105.4c0,0,0,109.3,0,194.4V392c-4.8,24.7-81.2,44.3-175.3,44.6h-1.8c-82.9-0.3-151.8-17.5-169-40.4
		c-1.4-1.9-2.5-3.9-3.2-5.9V191.4c0-48.2,0-85.9,0-85.9c0-17,78.2-30.8,174.6-30.8c52.6,0,99.7,4.1,131.7,10.6
		C414.1,90.6,430.3,97.7,430.3,105.4z"/>
</g>
<g id="Layer_4">
	<path class="st3" d="M428.7,105.4c0,0,0,109.3,0,194.4V392c-4.8,24.7-81.2,44.3-175.3,44.6h-1.8c-82.9-0.3-151.8-17.5-169-40.4
		c3.1-25.9,10.1-51.2,20.8-75.5l0,0c13.8-31.4,33.6-61.3,58.6-89.1c31.9-35.5,72.2-67.8,119.4-95.7c31.8-18.9,66.8-35.9,104.3-50.6
		C412.5,90.6,428.7,97.7,428.7,105.4z"/>
</g>
<g id="Layer_6">
	<g>
		<path class="st4" d="M430.2,105.4c0,15.3-63.8,28-147.2,30.4c-8.9,0.2-18.1,0.4-27.4,0.4c-96.5,0-174.6-13.8-174.6-30.8
			s78.2-30.8,174.6-30.8c52.6,0,99.7,4.1,131.7,10.6C414,90.6,430.2,97.7,430.2,105.4z"/>
		<path class="st5" d="M80.9,191.4c0,26,77.3,47,172.8,47"/>
		<path class="st6" d="M429.3,191.4c0,26-79.3,47-177.3,47"/>
		<path class="st5" d="M82.1,297.3c0,26,77.3,47,172.8,47"/>
		<path class="st6" d="M430.4,297.3c0,26-79.3,47-177.3,47"/>
		<path class="st7" d="M254.9,436.6c-0.6,0-1.2,0-1.8,0c-82.9-0.3-151.8-17.5-169-40.4c-1.4-1.9-2.5-3.9-3.2-5.9
			c0-18.4,0-122,0-198.9c0-48.2,0-85.9,0-85.9"/>
		<path class="st8" d="M253.1,436.6c0.6,0,1.2,0,1.8,0c94.1-0.3,170.4-19.9,175.3-44.6c0-14.3,0-50.3,0-92.2c0-85.1,0-194.4,0-194.4
			"/>
	</g>
</g>
<g id="Layer_7" class="st0">
	<g class="st9">
		<path class="st10" d="M163.3,77.6V51.8h5.1l6.1,18.2c0.6,1.7,1,3,1.2,3.8c0.3-0.9,0.8-2.3,1.4-4.1l6.2-17.9h4.6v25.8h-3.3V56
			l-7.5,21.6H174l-7.5-21.9v21.9H163.3z"/>
		<path class="st10" d="M191.9,68.3c0-3.5,1-6,2.9-7.7c1.6-1.4,3.6-2.1,5.9-2.1c2.6,0,4.7,0.8,6.3,2.5s2.4,4,2.4,7
			c0,2.4-0.4,4.3-1.1,5.7s-1.8,2.4-3.1,3.2s-2.9,1.1-4.5,1.1c-2.6,0-4.7-0.8-6.3-2.5S191.9,71.4,191.9,68.3z M195.1,68.3
			c0,2.4,0.5,4.2,1.6,5.4s2.4,1.8,3.9,1.8c1.6,0,2.9-0.6,3.9-1.8s1.6-3,1.6-5.5c0-2.3-0.5-4.1-1.6-5.2s-2.4-1.8-3.9-1.8
			c-1.6,0-2.9,0.6-3.9,1.8S195.1,65.9,195.1,68.3z"/>
		<path class="st10" d="M213.1,77.6V58.9h2.8v2.7c1.4-2.1,3.4-3.1,5.9-3.1c1.1,0,2.2,0.2,3.1,0.6s1.6,0.9,2.1,1.6s0.8,1.4,1,2.3
			c0.1,0.6,0.2,1.6,0.2,3.1v11.5H225V66.2c0-1.3-0.1-2.3-0.4-2.9s-0.7-1.1-1.3-1.5s-1.4-0.6-2.2-0.6c-1.3,0-2.5,0.4-3.5,1.3
			s-1.5,2.5-1.5,4.9v10.2C216.1,77.6,213.1,77.6,213.1,77.6z"/>
		<path class="st10" d="M233,77.6V58.9h2.8v2.8c0.7-1.3,1.4-2.2,2-2.6s1.3-0.6,2-0.6c1.1,0,2.2,0.3,3.3,1l-1.1,2.9
			c-0.8-0.5-1.5-0.7-2.3-0.7c-0.7,0-1.3,0.2-1.9,0.6s-0.9,1-1.2,1.7c-0.4,1.1-0.5,2.4-0.5,3.7v9.8L233,77.6L233,77.6z"/>
		<path class="st10" d="M243.9,68.3c0-3.5,1-6,2.9-7.7c1.6-1.4,3.6-2.1,5.9-2.1c2.6,0,4.7,0.8,6.3,2.5s2.4,4,2.4,7
			c0,2.4-0.4,4.3-1.1,5.7s-1.8,2.4-3.1,3.2s-2.9,1.1-4.5,1.1c-2.6,0-4.7-0.8-6.3-2.5S243.9,71.4,243.9,68.3z M247.1,68.3
			c0,2.4,0.5,4.2,1.6,5.4s2.4,1.8,3.9,1.8c1.6,0,2.9-0.6,3.9-1.8s1.6-3,1.6-5.5c0-2.3-0.5-4.1-1.6-5.2s-2.4-1.8-3.9-1.8
			c-1.6,0-2.9,0.6-3.9,1.8S247.1,65.9,247.1,68.3z"/>
		<path class="st10" d="M277.9,71.6l3.3,0.4c-0.5,1.9-1.5,3.4-2.9,4.4S275.1,78,273,78c-2.7,0-4.9-0.8-6.5-2.5s-2.4-4-2.4-7.1
			s0.8-5.6,2.4-7.3s3.7-2.6,6.3-2.6c2.5,0,4.5,0.8,6.1,2.5s2.4,4.1,2.4,7.2c0,0.2,0,0.5,0,0.8h-13.9c0.1,2.1,0.7,3.6,1.7,4.7
			s2.3,1.6,3.9,1.6c1.2,0,2.2-0.3,3-0.9S277.4,72.9,277.9,71.6z M267.5,66.5h10.4c-0.1-1.6-0.5-2.7-1.2-3.5c-1-1.2-2.3-1.8-3.9-1.8
			c-1.5,0-2.7,0.5-3.7,1.5S267.6,64.8,267.5,66.5z"/>
		<path class="st10" d="M313.9,68.6l3.4,0.9c-0.7,2.8-2,4.9-3.9,6.4s-4.1,2.2-6.8,2.2c-2.8,0-5-0.6-6.8-1.7s-3.1-2.8-4-4.9
			s-1.4-4.4-1.4-6.9c0-2.7,0.5-5,1.5-7s2.5-3.5,4.4-4.6s4-1.6,6.2-1.6c2.6,0,4.7,0.7,6.5,2s3,3.2,3.7,5.5l-3.4,0.8
			c-0.6-1.9-1.5-3.2-2.6-4.1s-2.6-1.3-4.3-1.3c-2,0-3.6,0.5-5,1.4s-2.3,2.2-2.8,3.8s-0.8,3.2-0.8,4.9c0,2.2,0.3,4.1,1,5.7
			s1.6,2.9,3,3.7s2.8,1.2,4.4,1.2c1.9,0,3.5-0.6,4.9-1.7S313.4,70.7,313.9,68.6z"/>
		<path class="st10" d="M319.9,68.3c0-3.5,1-6,2.9-7.7c1.6-1.4,3.6-2.1,5.9-2.1c2.6,0,4.7,0.8,6.3,2.5s2.4,4,2.4,7
			c0,2.4-0.4,4.3-1.1,5.7s-1.8,2.4-3.1,3.2s-2.9,1.1-4.5,1.1c-2.6,0-4.7-0.8-6.3-2.5S319.9,71.4,319.9,68.3z M323.2,68.3
			c0,2.4,0.5,4.2,1.6,5.4s2.4,1.8,3.9,1.8c1.6,0,2.9-0.6,3.9-1.8s1.6-3,1.6-5.5c0-2.3-0.5-4.1-1.6-5.2s-2.4-1.8-3.9-1.8
			c-1.6,0-2.9,0.6-3.9,1.8S323.2,65.9,323.2,68.3z"/>
		<path class="st10" d="M341.1,77.6V58.9h2.8v2.6c0.6-0.9,1.4-1.6,2.3-2.2s2.1-0.8,3.3-0.8c1.4,0,2.5,0.3,3.4,0.9s1.5,1.4,1.9,2.4
			c1.5-2.2,3.4-3.3,5.8-3.3c1.9,0,3.3,0.5,4.3,1.5s1.5,2.6,1.5,4.7v12.8h-3.1V65.8c0-1.3-0.1-2.2-0.3-2.7s-0.6-1-1.1-1.3
			s-1.2-0.5-1.9-0.5c-1.3,0-2.4,0.4-3.3,1.3s-1.3,2.3-1.3,4.2v10.8h-3.2V65.5c0-1.4-0.3-2.5-0.8-3.2s-1.4-1.1-2.5-1.1
			c-0.9,0-1.7,0.2-2.5,0.7s-1.3,1.2-1.6,2.1c-0.3,0.9-0.5,2.2-0.5,3.9v9.7H341.1z"/>
		<path class="st10" d="M371.1,77.6V58.9h2.8v2.6c0.6-0.9,1.4-1.6,2.3-2.2s2.1-0.8,3.3-0.8c1.4,0,2.5,0.3,3.4,0.9s1.5,1.4,1.9,2.4
			c1.5-2.2,3.4-3.3,5.8-3.3c1.9,0,3.3,0.5,4.3,1.5s1.5,2.6,1.5,4.7v12.8h-3.1V65.8c0-1.3-0.1-2.2-0.3-2.7s-0.6-1-1.1-1.3
			s-1.2-0.5-1.9-0.5c-1.3,0-2.4,0.4-3.3,1.3s-1.3,2.3-1.3,4.2v10.8h-3.2V65.5c0-1.4-0.3-2.5-0.8-3.2s-1.4-1.1-2.5-1.1
			c-0.9,0-1.7,0.2-2.5,0.7s-1.3,1.2-1.6,2.1c-0.3,0.9-0.5,2.2-0.5,3.9v9.7H371.1z"/>
		<path class="st10" d="M413.3,77.6v-2.7c-1.5,2.1-3.4,3.2-5.9,3.2c-1.1,0-2.1-0.2-3.1-0.6s-1.7-1-2.1-1.6s-0.8-1.4-1-2.3
			c-0.1-0.6-0.2-1.6-0.2-3V58.9h3.2v10.4c0,1.7,0.1,2.8,0.2,3.3c0.2,0.8,0.6,1.5,1.3,2s1.4,0.7,2.4,0.7s1.8-0.2,2.7-0.7
			s1.4-1.1,1.8-2s0.5-2.1,0.5-3.6V59h3.2v18.7h-3V77.6z"/>
		<path class="st10" d="M421.1,77.6V58.9h2.8v2.7c1.4-2.1,3.4-3.1,5.9-3.1c1.1,0,2.2,0.2,3.1,0.6s1.6,0.9,2.1,1.6s0.8,1.4,1,2.3
			c0.1,0.6,0.2,1.6,0.2,3.1v11.5H433V66.2c0-1.3-0.1-2.3-0.4-2.9s-0.7-1.1-1.3-1.5s-1.4-0.6-2.2-0.6c-1.3,0-2.5,0.4-3.5,1.3
			s-1.5,2.5-1.5,4.9v10.2C424.1,77.6,421.1,77.6,421.1,77.6z"/>
		<path class="st10" d="M441.2,55.5v-3.6h3.2v3.6H441.2z M441.2,77.6V58.9h3.2v18.7C444.4,77.6,441.2,77.6,441.2,77.6z"/>
		<path class="st10" d="M456.1,74.8l0.5,2.8c-0.9,0.2-1.7,0.3-2.4,0.3c-1.1,0-2-0.2-2.7-0.5s-1.1-0.8-1.3-1.4s-0.4-1.8-0.4-3.7V61.4
			h-2.3v-2.5h2.3v-4.6l3.1-1.9v6.5h3.2v2.5h-3.2v10.9c0,0.9,0.1,1.5,0.2,1.7s0.3,0.5,0.5,0.6s0.6,0.2,1.1,0.2
			C455,74.9,455.5,74.9,456.1,74.8z"/>
		<path class="st10" d="M459,84.8l-0.4-3c0.7,0.2,1.3,0.3,1.8,0.3c0.7,0,1.3-0.1,1.7-0.4s0.8-0.6,1-1c0.2-0.3,0.5-1.1,1-2.4
			c0.1-0.2,0.2-0.4,0.3-0.8l-7.1-18.7h3.4l3.9,10.8c0.5,1.4,1,2.8,1.4,4.3c0.4-1.5,0.8-2.9,1.3-4.3l4-10.9h3.2l-7.1,19
			c-0.8,2.1-1.4,3.5-1.8,4.2c-0.6,1-1.2,1.8-1.9,2.3s-1.6,0.7-2.6,0.7C460.4,85.2,459.8,85,459,84.8z"/>
		<path class="st10" d="M163.5,120.8V95h11.4c2.3,0,4,0.2,5.2,0.7s2.2,1.3,2.9,2.5s1.1,2.5,1.1,3.9c0,1.8-0.6,3.4-1.8,4.6
			s-3,2.1-5.5,2.4c0.9,0.4,1.6,0.9,2.1,1.3c1,0.9,1.9,2.1,2.8,3.4l4.5,7h-4.3l-3.4-5.4c-1-1.5-1.8-2.7-2.5-3.6s-1.2-1.4-1.7-1.7
			s-1-0.6-1.6-0.7c-0.4-0.1-1-0.1-1.9-0.1h-4v11.4L163.5,120.8L163.5,120.8z M166.9,106.4h7.3c1.6,0,2.8-0.2,3.7-0.5s1.5-0.8,2-1.5
			s0.7-1.5,0.7-2.3c0-1.2-0.4-2.2-1.3-3s-2.3-1.2-4.2-1.2h-8.2V106.4z"/>
		<path class="st10" d="M201.8,114.8l3.3,0.4c-0.5,1.9-1.5,3.4-2.9,4.4s-3.2,1.6-5.3,1.6c-2.7,0-4.9-0.8-6.5-2.5s-2.4-4-2.4-7.1
			s0.8-5.6,2.4-7.3s3.7-2.6,6.3-2.6c2.5,0,4.5,0.8,6.1,2.5s2.4,4.1,2.4,7.2c0,0.2,0,0.5,0,0.8h-13.9c0.1,2.1,0.7,3.6,1.7,4.7
			s2.3,1.6,3.9,1.6c1.2,0,2.2-0.3,3-0.9S201.3,116.1,201.8,114.8z M191.4,109.7h10.4c-0.1-1.6-0.5-2.7-1.2-3.5
			c-1-1.2-2.3-1.8-3.9-1.8c-1.5,0-2.7,0.5-3.7,1.5S191.5,108,191.4,109.7z"/>
		<path class="st10" d="M207.8,115.2l3.1-0.5c0.2,1.3,0.7,2.2,1.5,2.9s1.9,1,3.4,1s2.5-0.3,3.2-0.9s1.1-1.3,1.1-2.1
			c0-0.7-0.3-1.3-0.9-1.7c-0.4-0.3-1.5-0.6-3.2-1.1c-2.3-0.6-3.9-1.1-4.8-1.5s-1.6-1-2-1.8s-0.7-1.6-0.7-2.5c0-0.8,0.2-1.6,0.6-2.3
			s0.9-1.3,1.6-1.8c0.5-0.4,1.2-0.7,2-0.9s1.8-0.4,2.7-0.4c1.5,0,2.8,0.2,3.9,0.6s1.9,1,2.5,1.7s0.9,1.7,1.1,2.9l-3.1,0.4
			c-0.1-1-0.5-1.7-1.2-2.3s-1.6-0.8-2.9-0.8c-1.5,0-2.5,0.2-3.1,0.7s-0.9,1-0.9,1.7c0,0.4,0.1,0.8,0.4,1.1c0.3,0.3,0.7,0.6,1.2,0.8
			c0.3,0.1,1.2,0.4,2.8,0.8c2.2,0.6,3.8,1.1,4.7,1.5s1.6,0.9,2.1,1.7s0.8,1.6,0.8,2.7s-0.3,2-0.9,3s-1.5,1.7-2.7,2.2
			s-2.5,0.8-3.9,0.8c-2.4,0-4.3-0.5-5.5-1.5S208.2,117.2,207.8,115.2z"/>
		<path class="st10" d="M225.9,111.5c0-3.5,1-6,2.9-7.7c1.6-1.4,3.6-2.1,5.9-2.1c2.6,0,4.7,0.8,6.3,2.5s2.4,4,2.4,7
			c0,2.4-0.4,4.3-1.1,5.7s-1.8,2.4-3.1,3.2s-2.9,1.1-4.5,1.1c-2.6,0-4.7-0.8-6.3-2.5S225.9,114.6,225.9,111.5z M229.1,111.5
			c0,2.4,0.5,4.2,1.6,5.4s2.4,1.8,3.9,1.8c1.6,0,2.9-0.6,3.9-1.8s1.6-3,1.6-5.5c0-2.3-0.5-4.1-1.6-5.2s-2.4-1.8-3.9-1.8
			c-1.6,0-2.9,0.6-3.9,1.8S229.1,109.1,229.1,111.5z"/>
		<path class="st10" d="M259.3,120.8v-2.7c-1.5,2.1-3.4,3.2-5.9,3.2c-1.1,0-2.1-0.2-3.1-0.6s-1.7-1-2.1-1.6s-0.8-1.4-1-2.3
			c-0.1-0.6-0.2-1.6-0.2-3v-11.6h3.2v10.4c0,1.7,0.1,2.8,0.2,3.3c0.2,0.8,0.6,1.5,1.3,2s1.4,0.7,2.4,0.7s1.8-0.2,2.7-0.7
			c0.9-0.5,1.4-1.1,1.8-2s0.5-2.1,0.5-3.6v-10h3.2V121h-3V120.8z"/>
		<path class="st10" d="M267.1,120.8v-18.7h2.8v2.8c0.7-1.3,1.4-2.2,2-2.6s1.3-0.6,2-0.6c1.1,0,2.2,0.3,3.3,1l-1.1,2.9
			c-0.8-0.5-1.5-0.7-2.3-0.7c-0.7,0-1.3,0.2-1.9,0.6s-0.9,1-1.2,1.7c-0.4,1.1-0.5,2.4-0.5,3.7v9.8L267.1,120.8L267.1,120.8z"/>
		<path class="st10" d="M291.3,114l3.1,0.4c-0.3,2.1-1.2,3.8-2.6,5s-3.1,1.8-5.2,1.8c-2.6,0-4.6-0.8-6.2-2.5s-2.3-4.1-2.3-7.2
			c0-2,0.3-3.8,1-5.3s1.7-2.6,3-3.4s2.9-1.1,4.5-1.1c2,0,3.7,0.5,5,1.5s2.1,2.5,2.5,4.4l-3.1,0.5c-0.3-1.3-0.8-2.2-1.6-2.8
			s-1.6-0.9-2.7-0.9c-1.6,0-2.9,0.6-3.9,1.7s-1.5,3-1.5,5.4c0,2.5,0.5,4.3,1.4,5.5s2.2,1.7,3.8,1.7c1.2,0,2.3-0.4,3.1-1.1
			S291.1,115.5,291.3,114z"/>
		<path class="st10" d="M309.9,114.8l3.3,0.4c-0.5,1.9-1.5,3.4-2.9,4.4s-3.2,1.6-5.3,1.6c-2.7,0-4.9-0.8-6.5-2.5s-2.4-4-2.4-7.1
			s0.8-5.6,2.4-7.3s3.7-2.6,6.3-2.6c2.5,0,4.5,0.8,6.1,2.5s2.4,4.1,2.4,7.2c0,0.2,0,0.5,0,0.8h-13.9c0.1,2.1,0.7,3.6,1.7,4.7
			s2.3,1.6,3.9,1.6c1.2,0,2.2-0.3,3-0.9S309.4,116.1,309.9,114.8z M299.5,109.7h10.4c-0.1-1.6-0.5-2.7-1.2-3.5
			c-1-1.2-2.3-1.8-3.9-1.8c-1.5,0-2.7,0.5-3.7,1.5S299.6,108,299.5,109.7z"/>
		<path class="st10" d="M327.5,120.8V95h8.9c2,0,3.5,0.1,4.6,0.4c1.5,0.3,2.7,1,3.8,1.8c1.4,1.1,2.4,2.6,3,4.4s1,3.8,1,6.1
			c0,2-0.2,3.7-0.7,5.2s-1,2.8-1.8,3.8s-1.5,1.8-2.3,2.3s-1.9,1-3.1,1.3s-2.6,0.4-4.1,0.4L327.5,120.8L327.5,120.8z M330.9,117.8
			h5.5c1.7,0,3-0.2,4-0.5s1.7-0.8,2.3-1.3c0.8-0.8,1.4-1.9,1.9-3.3s0.7-3,0.7-5c0-2.7-0.4-4.8-1.3-6.2s-2-2.4-3.2-2.9
			c-0.9-0.4-2.4-0.5-4.4-0.5H331v19.7H330.9z"/>
		<path class="st10" d="M365.3,118.5c-1.2,1-2.3,1.7-3.4,2.1s-2.2,0.6-3.5,0.6c-2.1,0-3.6-0.5-4.7-1.5s-1.7-2.3-1.7-3.8
			c0-0.9,0.2-1.7,0.6-2.5s1-1.4,1.6-1.8s1.4-0.8,2.3-1c0.6-0.2,1.6-0.3,2.8-0.5c2.6-0.3,4.4-0.7,5.6-1.1c0-0.4,0-0.7,0-0.8
			c0-1.3-0.3-2.2-0.9-2.7c-0.8-0.7-2-1.1-3.6-1.1c-1.5,0-2.6,0.3-3.3,0.8s-1.2,1.4-1.6,2.8l-3.1-0.4c0.3-1.3,0.7-2.4,1.4-3.2
			s1.6-1.4,2.8-1.9s2.6-0.7,4.2-0.7s2.9,0.2,3.9,0.6s1.7,0.8,2.2,1.4s0.8,1.3,1,2.2c0.1,0.5,0.2,1.5,0.2,2.9v4.2
			c0,2.9,0.1,4.8,0.2,5.6s0.4,1.5,0.8,2.2h-3.3C365.6,120.1,365.4,119.4,365.3,118.5z M365,111.4c-1.1,0.5-2.9,0.9-5.2,1.2
			c-1.3,0.2-2.2,0.4-2.8,0.6s-1,0.6-1.2,1s-0.4,1-0.4,1.5c0,0.8,0.3,1.5,1,2.1s1.6,0.8,2.8,0.8c1.2,0,2.3-0.3,3.3-0.8
			s1.6-1.3,2.1-2.2c0.3-0.7,0.5-1.8,0.5-3.2L365,111.4L365,111.4z"/>
		<path class="st10" d="M380,118l0.5,2.8c-0.9,0.2-1.7,0.3-2.4,0.3c-1.1,0-2-0.2-2.7-0.5s-1.1-0.8-1.3-1.4s-0.4-1.8-0.4-3.7v-10.7
			h-2.3v-2.5h2.3v-4.6l3.1-1.9v6.5h3.2v2.5h-3.2v10.9c0,0.9,0.1,1.5,0.2,1.7s0.3,0.5,0.5,0.6s0.6,0.2,1.1,0.2
			C379,118.1,379.5,118.1,380,118z"/>
		<path class="st10" d="M395.3,118.5c-1.2,1-2.3,1.7-3.4,2.1s-2.2,0.6-3.5,0.6c-2.1,0-3.6-0.5-4.7-1.5s-1.7-2.3-1.7-3.8
			c0-0.9,0.2-1.7,0.6-2.5s1-1.4,1.6-1.8s1.4-0.8,2.3-1c0.6-0.2,1.6-0.3,2.8-0.5c2.6-0.3,4.4-0.7,5.6-1.1c0-0.4,0-0.7,0-0.8
			c0-1.3-0.3-2.2-0.9-2.7c-0.8-0.7-2-1.1-3.6-1.1c-1.5,0-2.6,0.3-3.3,0.8s-1.2,1.4-1.6,2.8l-3.1-0.4c0.3-1.3,0.7-2.4,1.4-3.2
			s1.6-1.4,2.8-1.9s2.6-0.7,4.2-0.7s2.9,0.2,3.9,0.6s1.7,0.8,2.2,1.4s0.8,1.3,1,2.2c0.1,0.5,0.2,1.5,0.2,2.9v4.2
			c0,2.9,0.1,4.8,0.2,5.6s0.4,1.5,0.8,2.2H396C395.6,120.1,395.4,119.4,395.3,118.5z M395.1,111.4c-1.1,0.5-2.9,0.9-5.2,1.2
			c-1.3,0.2-2.2,0.4-2.8,0.6s-1,0.6-1.2,1s-0.4,1-0.4,1.5c0,0.8,0.3,1.5,1,2.1s1.6,0.8,2.8,0.8c1.2,0,2.3-0.3,3.3-0.8
			s1.6-1.3,2.1-2.2c0.3-0.7,0.5-1.8,0.5-3.2L395.1,111.4L395.1,111.4z"/>
		<path class="st10" d="M406.1,120.8h-2.9V95h3.2v9.2c1.3-1.7,3-2.5,5.1-2.5c1.1,0,2.2,0.2,3.3,0.7s1.9,1.1,2.5,2s1.2,1.8,1.6,3
			s0.6,2.4,0.6,3.8c0,3.2-0.8,5.7-2.4,7.4s-3.5,2.6-5.7,2.6s-3.9-0.9-5.2-2.8v2.4H406.1z M406,111.3c0,2.2,0.3,3.9,0.9,4.9
			c1,1.6,2.3,2.4,4,2.4c1.4,0,2.6-0.6,3.6-1.8s1.5-3,1.5-5.4s-0.5-4.2-1.5-5.4s-2.1-1.7-3.5-1.7s-2.6,0.6-3.6,1.8
			S406,109.1,406,111.3z"/>
		<path class="st10" d="M435.4,118.5c-1.2,1-2.3,1.7-3.4,2.1s-2.2,0.6-3.5,0.6c-2.1,0-3.6-0.5-4.7-1.5s-1.7-2.3-1.7-3.8
			c0-0.9,0.2-1.7,0.6-2.5s1-1.4,1.6-1.8s1.4-0.8,2.3-1c0.6-0.2,1.6-0.3,2.8-0.5c2.6-0.3,4.4-0.7,5.6-1.1c0-0.4,0-0.7,0-0.8
			c0-1.3-0.3-2.2-0.9-2.7c-0.8-0.7-2-1.1-3.6-1.1c-1.5,0-2.6,0.3-3.3,0.8s-1.2,1.4-1.6,2.8l-3.1-0.4c0.3-1.3,0.7-2.4,1.4-3.2
			s1.6-1.4,2.8-1.9s2.6-0.7,4.2-0.7s2.9,0.2,3.9,0.6s1.7,0.8,2.2,1.4s0.8,1.3,1,2.2c0.1,0.5,0.2,1.5,0.2,2.9v4.2
			c0,2.9,0.1,4.8,0.2,5.6s0.4,1.5,0.8,2.2H436C435.7,120.1,435.5,119.4,435.4,118.5z M435.1,111.4c-1.1,0.5-2.9,0.9-5.2,1.2
			c-1.3,0.2-2.2,0.4-2.8,0.6s-1,0.6-1.2,1s-0.4,1-0.4,1.5c0,0.8,0.3,1.5,1,2.1s1.6,0.8,2.8,0.8c1.2,0,2.3-0.3,3.3-0.8
			s1.6-1.3,2.1-2.2c0.3-0.7,0.5-1.8,0.5-3.2L435.1,111.4L435.1,111.4z"/>
		<path class="st10" d="M441.9,115.2l3.1-0.5c0.2,1.3,0.7,2.2,1.5,2.9s1.9,1,3.4,1s2.5-0.3,3.2-0.9s1.1-1.3,1.1-2.1
			c0-0.7-0.3-1.3-0.9-1.7c-0.4-0.3-1.5-0.6-3.2-1.1c-2.3-0.6-3.9-1.1-4.8-1.5s-1.6-1-2-1.8s-0.7-1.6-0.7-2.5c0-0.8,0.2-1.6,0.6-2.3
			s0.9-1.3,1.6-1.8c0.5-0.4,1.2-0.7,2-0.9s1.8-0.4,2.7-0.4c1.5,0,2.8,0.2,3.9,0.6s1.9,1,2.5,1.7s0.9,1.7,1.1,2.9l-3.1,0.4
			c-0.1-1-0.5-1.7-1.2-2.3s-1.6-0.8-2.9-0.8c-1.5,0-2.5,0.2-3.1,0.7s-0.9,1-0.9,1.7c0,0.4,0.1,0.8,0.4,1.1c0.3,0.3,0.7,0.6,1.2,0.8
			c0.3,0.1,1.2,0.4,2.8,0.8c2.2,0.6,3.8,1.1,4.7,1.5s1.6,0.9,2.1,1.7s0.8,1.6,0.8,2.7s-0.3,2-0.9,3s-1.5,1.7-2.7,2.2
			s-2.5,0.8-3.9,0.8c-2.4,0-4.3-0.5-5.5-1.5S442.3,117.2,441.9,115.2z"/>
		<path class="st10" d="M474,114.8l3.3,0.4c-0.5,1.9-1.5,3.4-2.9,4.4s-3.2,1.6-5.3,1.6c-2.7,0-4.9-0.8-6.5-2.5s-2.4-4-2.4-7.1
			s0.8-5.6,2.4-7.3s3.7-2.6,6.3-2.6c2.5,0,4.5,0.8,6.1,2.5s2.4,4.1,2.4,7.2c0,0.2,0,0.5,0,0.8h-13.9c0.1,2.1,0.7,3.6,1.7,4.7
			s2.3,1.6,3.9,1.6c1.2,0,2.2-0.3,3-0.9S473.5,116.1,474,114.8z M463.6,109.7H474c-0.1-1.6-0.5-2.7-1.2-3.5c-1-1.2-2.3-1.8-3.9-1.8
			c-1.5,0-2.7,0.5-3.7,1.5S463.7,108,463.6,109.7z"/>
	</g>
</g>
</svg>
